<svg version="1.1" xmlns="http://www.w3.org/2000/svg" viewBox="-2588.907912524127 -1499.6480361938477 9457.900240404986 2282.4960845947267"><desc>Created with Snap</desc><defs></defs><g><g transform="matrix(21.0884,0,0,21.0884,-2302.7964,-1411.7679)"><path d="M7.8,89.5h84.4c3.7,0,6.8-3,6.8-6.8V17.2c0-3.7-3-6.8-6.8-6.8H7.8c-3.7,0-6.8,3-6.8,6.8v65.5C1,86.5,4.1,89.5,7.8,89.5z   M92.2,86H7.8c-1.8,0-3.3-1.5-3.3-3.3V32.9h91v49.9C95.5,84.6,94,86,92.2,86z M7.8,14h84.4c1.8,0,3.3,1.5,3.3,3.3v12.1h-91V17.2  C4.5,15.4,6,14,7.8,14z M11,22.9c-0.3-0.3-0.5-0.8-0.5-1.2c0-0.5,0.2-0.9,0.5-1.2c0.7-0.6,1.8-0.6,2.5,0c0.3,0.3,0.5,0.8,0.5,1.2  c0,0.5-0.2,0.9-0.5,1.2c-0.3,0.3-0.8,0.5-1.2,0.5S11.3,23.2,11,22.9z M20.4,22.9c-0.3-0.3-0.5-0.8-0.5-1.2c0-0.5,0.2-0.9,0.5-1.2  c0.7-0.6,1.8-0.7,2.5,0c0.3,0.3,0.5,0.8,0.5,1.2s-0.2,0.9-0.5,1.2c-0.3,0.3-0.8,0.5-1.2,0.5S20.8,23.2,20.4,22.9z M29.9,22.9  c-0.3-0.3-0.5-0.8-0.5-1.2c0-0.5,0.2-0.9,0.5-1.2c0.6-0.6,1.8-0.6,2.5,0c0.3,0.3,0.5,0.8,0.5,1.2c0,0.5-0.2,0.9-0.5,1.2  c-0.3,0.3-0.8,0.5-1.2,0.5S30.2,23.2,29.9,22.9z M87.1,76.6c0,1-0.8,1.8-1.8,1.8H14.6c-1,0-1.8-0.8-1.8-1.8s0.8-1.8,1.8-1.8h70.7  C86.3,74.8,87.1,75.6,87.1,76.6z M87.1,65.3c0,1-0.8,1.8-1.8,1.8H33.2c-1,0-1.8-0.8-1.8-1.8s0.8-1.8,1.8-1.8h52.1  C86.3,63.5,87.1,64.3,87.1,65.3z M87.1,53.9c0,1-0.8,1.8-1.8,1.8H14.6c-1,0-1.8-0.8-1.8-1.8s0.8-1.8,1.8-1.8h70.7  C86.3,52.2,87.1,53,87.1,53.9z M87.1,42.6c0,1-0.8,1.8-1.8,1.8H50c-1,0-1.8-0.8-1.8-1.8s0.8-1.8,1.8-1.8h35.4  C86.3,40.9,87.1,41.6,87.1,42.6z" fill="#FFFFFF" style=""></path><desc>Created with Snap</desc><defs></defs></g><g><g transform="matrix(1.024,0,0,-1.024,0,0)"><path d="M258 0L90 0L90 656L254 656Q406 656 485 572Q564 488 564 331Q564 253 544 191Q524 130 485 87Q446 45 389 22Q332 0 258 0ZM173 588L173 68L248 68Q363 68 420 137Q478 206 478 331Q478 456 420 522Q363 588 248 588L173 588ZM809 -12Q748 -12 707 24Q667 60 667 126Q667 206 738 248Q809 291 965 308Q965 331 960 353Q956 375 945 392Q934 409 914 419Q895 430 865 430Q823 430 786 414Q749 398 720 378L688 435Q722 457 771 477Q820 498 879 498Q968 498 1008 443Q1048 389 1048 298L1048 0L980 0L973 58L970 58Q935 29 895 8Q855 -12 809 -12ZM833 54Q868 54 899 70Q930 87 965 119L965 254Q904 246 862 235Q821 224 795 209Q770 194 758 174Q747 155 747 132Q747 90 772 72Q797 54 833 54ZM1283 0L1201 0L1201 486L1269 486L1276 416L1279 416Q1311 451 1348 474Q1386 498 1430 498Q1486 498 1517 473Q1549 449 1564 405Q1602 447 1640 472Q1679 498 1724 498Q1799 498 1835 450Q1872 402 1872 308L1872 0L1790 0L1790 297Q1790 366 1768 396Q1746 427 1700 427Q1645 427 1578 352L1578 0L1496 0L1496 297Q1496 366 1474 396Q1452 427 1405 427Q1350 427 1283 352L1283 0ZM2112 0L2030 0L2030 486L2112 486L2112 0ZM2072 586Q2048 586 2031 601Q2015 616 2015 639Q2015 663 2031 677Q2048 692 2072 692Q2096 692 2112 677Q2129 663 2129 639Q2129 616 2112 601Q2096 586 2072 586ZM2473 -12Q2424 -12 2381 5Q2339 23 2307 55Q2276 88 2258 135Q2240 182 2240 242Q2240 302 2258 349Q2277 397 2307 430Q2338 463 2377 480Q2416 498 2458 498Q2504 498 2540 482Q2577 466 2601 436Q2626 406 2639 364Q2652 322 2652 270Q2652 257 2651 244Q2651 232 2649 223L2321 223Q2326 145 2369 99Q2413 54 2483 54Q2518 54 2547 64Q2577 75 2604 92L2633 38Q2601 18 2562 3Q2523 -12 2473 -12ZM2320 282L2580 282Q2580 356 2548 394Q2517 433 2460 433Q2434 433 2410 423Q2387 413 2368 393Q2349 374 2336 346Q2324 318 2320 282ZM2854 0L2772 0L2772 486L2840 486L2847 416L2850 416Q2885 451 2923 474Q2962 498 3013 498Q3090 498 3125 450Q3161 402 3161 308L3161 0L3079 0L3079 297Q3079 366 3057 396Q3035 427 2987 427Q2949 427 2920 408Q2891 389 2854 352L2854 0ZM3610 0L3527 0L3527 656L3610 656L3610 381L3915 381L3915 656L3999 656L3999 0L3915 0L3915 309L3610 309L3610 0ZM4360 -12Q4315 -12 4274 5Q4234 22 4203 54Q4172 87 4153 134Q4135 182 4135 242Q4135 303 4153 350Q4172 398 4203 431Q4234 464 4274 481Q4315 498 4360 498Q4405 498 4445 481Q4486 464 4517 431Q4548 398 4566 350Q4585 303 4585 242Q4585 182 4566 134Q4548 87 4517 54Q4486 22 4445 5Q4405 -12 4360 -12ZM4360 56Q4391 56 4417 69Q4443 83 4461 107Q4480 132 4490 166Q4500 200 4500 242Q4500 284 4490 318Q4480 353 4461 378Q4443 403 4417 416Q4391 430 4360 430Q4329 430 4303 416Q4277 403 4258 378Q4240 353 4230 318Q4220 284 4220 242Q4220 200 4230 166Q4240 132 4258 107Q4277 83 4303 69Q4329 56 4360 56ZM4800 -12Q4753 -12 4733 16Q4713 44 4713 98L4713 712L4795 712L4795 92Q4795 72 4802 64Q4809 56 4818 56Q4822 56 4825 56Q4829 56 4836 58L4847 -4Q4839 -8 4828 -10Q4817 -12 4800 -12ZM5134 -12Q5042 -12 4987 54Q4933 120 4933 242Q4933 301 4950 348Q4968 396 4997 429Q5026 462 5064 480Q5102 498 5144 498Q5186 498 5217 483Q5248 468 5280 442L5276 525L5276 712L5359 712L5359 0L5291 0L5284 57L5281 57Q5252 29 5214 8Q5177 -12 5134 -12ZM5152 57Q5186 57 5216 73Q5246 90 5276 124L5276 378Q5245 406 5216 417Q5188 429 5158 429Q5129 429 5103 415Q5078 402 5059 377Q5040 353 5029 319Q5018 285 5018 243Q5018 155 5053 106Q5088 57 5152 57ZM5720 -12Q5671 -12 5628 5Q5586 23 5554 55Q5523 88 5505 135Q5487 182 5487 242Q5487 302 5505 349Q5524 397 5554 430Q5585 463 5624 480Q5663 498 5705 498Q5751 498 5787 482Q5824 466 5848 436Q5873 406 5886 364Q5899 322 5899 270Q5899 257 5898 244Q5898 232 5896 223L5568 223Q5573 145 5616 99Q5660 54 5730 54Q5765 54 5794 64Q5824 75 5851 92L5880 38Q5848 18 5809 3Q5770 -12 5720 -12ZM5567 282L5827 282Q5827 356 5795 394Q5764 433 5707 433Q5681 433 5657 423Q5634 413 5615 393Q5596 374 5583 346Q5571 318 5567 282ZM6101 0L6019 0L6019 486L6087 486L6094 416L6097 416Q6132 451 6170 474Q6209 498 6260 498Q6337 498 6372 450Q6408 402 6408 308L6408 0L6326 0L6326 297Q6326 366 6304 396Q6282 427 6234 427Q6196 427 6167 408Q6138 389 6101 352L6101 0Z" fill="#FFFFFF" style=""></path></g></g></g></svg>