<svg id="visual" viewBox="0 0 960 540" width="960" height="540" xmlns="http://www.w3.org/2000/svg" xmlns:xlink="http://www.w3.org/1999/xlink" version="1.1"><g stroke-width="1" stroke-linejoin="bevel"><path d="M449.7 208L554.3 257L514.3 154Z" fill="#277297" stroke="#277297"></path><path d="M554.3 257L639 152L514.3 154Z" fill="#0c2435" stroke="#0c2435"></path><path d="M639 152L534.3 84L514.3 154Z" fill="#0c2435" stroke="#0c2435"></path><path d="M514.3 154L446.7 58L449.7 208Z" fill="#246688" stroke="#246688"></path><path d="M635 255L639 152L554.3 257Z" fill="#19435d" stroke="#19435d"></path><path d="M395.7 304L526.3 359L554.3 257Z" fill="#112e42" stroke="#112e42"></path><path d="M554.3 257L660 368L635 255Z" fill="#112e42" stroke="#112e42"></path><path d="M449.7 208L395.7 304L554.3 257Z" fill="#19435d" stroke="#19435d"></path><path d="M534.3 84L446.7 58L514.3 154Z" fill="#205a7a" stroke="#205a7a"></path><path d="M449.7 208L333 189L395.7 304Z" fill="#205a7a" stroke="#205a7a"></path><path d="M446.7 58L333 189L449.7 208Z" fill="#15384f" stroke="#15384f"></path><path d="M302 361L391.7 375L395.7 304Z" fill="#277297" stroke="#277297"></path><path d="M395.7 304L391.7 375L526.3 359Z" fill="#277297" stroke="#277297"></path><path d="M774.7 201L663 83L639 152Z" fill="#00101c" stroke="#00101c"></path><path d="M639 152L663 83L534.3 84Z" fill="#112e42" stroke="#112e42"></path><path d="M534.3 84L533.3 0L446.7 58Z" fill="#0c2435" stroke="#0c2435"></path><path d="M391.7 375L494.3 419L526.3 359Z" fill="#112e42" stroke="#112e42"></path><path d="M526.3 359L660 368L554.3 257Z" fill="#081a28" stroke="#081a28"></path><path d="M653 477L660 368L526.3 359Z" fill="#112e42" stroke="#112e42"></path><path d="M635 255L759.7 252L639 152Z" fill="#205a7a" stroke="#205a7a"></path><path d="M640 0L533.3 0L534.3 84Z" fill="#297ea6" stroke="#297ea6"></path><path d="M533.3 0L414.7 0L446.7 58Z" fill="#246688" stroke="#246688"></path><path d="M446.7 58L313 63L333 189Z" fill="#297ea6" stroke="#297ea6"></path><path d="M391.7 375L420.7 434L494.3 419Z" fill="#19435d" stroke="#19435d"></path><path d="M216.3 262L281 303L333 189Z" fill="#246688" stroke="#246688"></path><path d="M333 189L281 303L395.7 304Z" fill="#00101c" stroke="#00101c"></path><path d="M391.7 375L320 449L420.7 434Z" fill="#277297" stroke="#277297"></path><path d="M414.7 0L313 63L446.7 58Z" fill="#297ea6" stroke="#297ea6"></path><path d="M737.7 410L711.7 363L660 368Z" fill="#15384f" stroke="#15384f"></path><path d="M660 368L711.7 363L635 255Z" fill="#081a28" stroke="#081a28"></path><path d="M663 83L640 0L534.3 84Z" fill="#112e42" stroke="#112e42"></path><path d="M711.7 363L759.7 252L635 255Z" fill="#1d4e6b" stroke="#1d4e6b"></path><path d="M663 83L760.7 0L640 0Z" fill="#112e42" stroke="#112e42"></path><path d="M281 303L302 361L395.7 304Z" fill="#15384f" stroke="#15384f"></path><path d="M759.7 252L774.7 201L639 152Z" fill="#112e42" stroke="#112e42"></path><path d="M210.3 178L216.3 262L333 189Z" fill="#081a28" stroke="#081a28"></path><path d="M281 303L193.3 355L302 361Z" fill="#277297" stroke="#277297"></path><path d="M494.3 419L653 477L526.3 359Z" fill="#081a28" stroke="#081a28"></path><path d="M521.3 540L653 477L494.3 419Z" fill="#205a7a" stroke="#205a7a"></path><path d="M653 477L737.7 410L660 368Z" fill="#297ea6" stroke="#297ea6"></path><path d="M711.7 363L836.3 380L759.7 252Z" fill="#0c2435" stroke="#0c2435"></path><path d="M890.3 250L816.3 164L774.7 201Z" fill="#112e42" stroke="#112e42"></path><path d="M302 361L320 449L391.7 375Z" fill="#277297" stroke="#277297"></path><path d="M426.7 540L521.3 540L494.3 419Z" fill="#1d4e6b" stroke="#1d4e6b"></path><path d="M231.3 421L320 449L302 361Z" fill="#19435d" stroke="#19435d"></path><path d="M313 63L210.3 178L333 189Z" fill="#277297" stroke="#277297"></path><path d="M414.7 0L296 0L313 63Z" fill="#205a7a" stroke="#205a7a"></path><path d="M313 63L189.3 114L210.3 178Z" fill="#0c2435" stroke="#0c2435"></path><path d="M890.3 250L774.7 201L759.7 252Z" fill="#081a28" stroke="#081a28"></path><path d="M774.7 201L774.7 51L663 83Z" fill="#15384f" stroke="#15384f"></path><path d="M816.3 164L774.7 51L774.7 201Z" fill="#277297" stroke="#277297"></path><path d="M426.7 540L494.3 419L420.7 434Z" fill="#15384f" stroke="#15384f"></path><path d="M823.3 0L760.7 0L774.7 51Z" fill="#00101c" stroke="#00101c"></path><path d="M774.7 51L760.7 0L663 83Z" fill="#277297" stroke="#277297"></path><path d="M320 449L426.7 540L420.7 434Z" fill="#15384f" stroke="#15384f"></path><path d="M176.3 0L189.3 114L313 63Z" fill="#15384f" stroke="#15384f"></path><path d="M113.7 264L193.3 355L216.3 262Z" fill="#112e42" stroke="#112e42"></path><path d="M521.3 540L619 540L653 477Z" fill="#297ea6" stroke="#297ea6"></path><path d="M653 477L754.7 540L737.7 410Z" fill="#277297" stroke="#277297"></path><path d="M118.7 183L216.3 262L210.3 178Z" fill="#15384f" stroke="#15384f"></path><path d="M216.3 262L193.3 355L281 303Z" fill="#246688" stroke="#246688"></path><path d="M320 449L296 540L426.7 540Z" fill="#15384f" stroke="#15384f"></path><path d="M193.3 355L231.3 421L302 361Z" fill="#0c2435" stroke="#0c2435"></path><path d="M874.3 421L836.3 380L737.7 410Z" fill="#19435d" stroke="#19435d"></path><path d="M737.7 410L836.3 380L711.7 363Z" fill="#15384f" stroke="#15384f"></path><path d="M871.3 89L823.3 0L774.7 51Z" fill="#246688" stroke="#246688"></path><path d="M871.3 89L774.7 51L816.3 164Z" fill="#205a7a" stroke="#205a7a"></path><path d="M836.3 380L890.3 250L759.7 252Z" fill="#112e42" stroke="#112e42"></path><path d="M960 203L871.3 89L816.3 164Z" fill="#15384f" stroke="#15384f"></path><path d="M194.3 540L296 540L231.3 421Z" fill="#277297" stroke="#277297"></path><path d="M231.3 421L296 540L320 449Z" fill="#19435d" stroke="#19435d"></path><path d="M90.7 78L118.7 183L189.3 114Z" fill="#277297" stroke="#277297"></path><path d="M189.3 114L118.7 183L210.3 178Z" fill="#246688" stroke="#246688"></path><path d="M296 0L176.3 0L313 63Z" fill="#0c2435" stroke="#0c2435"></path><path d="M118.7 183L113.7 264L216.3 262Z" fill="#1d4e6b" stroke="#1d4e6b"></path><path d="M110.7 456L194.3 540L231.3 421Z" fill="#246688" stroke="#246688"></path><path d="M619 540L754.7 540L653 477Z" fill="#1d4e6b" stroke="#1d4e6b"></path><path d="M839.3 540L874.3 421L737.7 410Z" fill="#081a28" stroke="#081a28"></path><path d="M836.3 380L960 381L890.3 250Z" fill="#277297" stroke="#277297"></path><path d="M176.3 0L138.7 0L189.3 114Z" fill="#081a28" stroke="#081a28"></path><path d="M138.7 0L90.7 78L189.3 114Z" fill="#081a28" stroke="#081a28"></path><path d="M118.7 183L0 184L113.7 264Z" fill="#1d4e6b" stroke="#1d4e6b"></path><path d="M960 241L960 203L890.3 250Z" fill="#15384f" stroke="#15384f"></path><path d="M890.3 250L960 203L816.3 164Z" fill="#1d4e6b" stroke="#1d4e6b"></path><path d="M871.3 89L960 0L823.3 0Z" fill="#297ea6" stroke="#297ea6"></path><path d="M960 381L960 241L890.3 250Z" fill="#0c2435" stroke="#0c2435"></path><path d="M110.7 456L231.3 421L193.3 355Z" fill="#15384f" stroke="#15384f"></path><path d="M754.7 540L839.3 540L737.7 410Z" fill="#205a7a" stroke="#205a7a"></path><path d="M874.3 421L960 381L836.3 380Z" fill="#00101c" stroke="#00101c"></path><path d="M72.7 386L193.3 355L113.7 264Z" fill="#15384f" stroke="#15384f"></path><path d="M72.7 386L110.7 456L193.3 355Z" fill="#246688" stroke="#246688"></path><path d="M0 334L72.7 386L113.7 264Z" fill="#00101c" stroke="#00101c"></path><path d="M960 203L960 62L871.3 89Z" fill="#1d4e6b" stroke="#1d4e6b"></path><path d="M960 471L960 381L874.3 421Z" fill="#297ea6" stroke="#297ea6"></path><path d="M110.7 456L139.7 540L194.3 540Z" fill="#081a28" stroke="#081a28"></path><path d="M0 540L139.7 540L110.7 456Z" fill="#00101c" stroke="#00101c"></path><path d="M960 62L960 0L871.3 89Z" fill="#00101c" stroke="#00101c"></path><path d="M0 105L118.7 183L90.7 78Z" fill="#112e42" stroke="#112e42"></path><path d="M0 105L0 184L118.7 183Z" fill="#0c2435" stroke="#0c2435"></path><path d="M0 184L0 258L113.7 264Z" fill="#277297" stroke="#277297"></path><path d="M72.7 386L0 450L110.7 456Z" fill="#1d4e6b" stroke="#1d4e6b"></path><path d="M839.3 540L960 471L874.3 421Z" fill="#00101c" stroke="#00101c"></path><path d="M0 0L0 105L90.7 78Z" fill="#0c2435" stroke="#0c2435"></path><path d="M0 258L0 334L113.7 264Z" fill="#081a28" stroke="#081a28"></path><path d="M138.7 0L0 0L90.7 78Z" fill="#0c2435" stroke="#0c2435"></path><path d="M839.3 540L960 540L960 471Z" fill="#246688" stroke="#246688"></path><path d="M0 334L0 450L72.7 386Z" fill="#0c2435" stroke="#0c2435"></path><path d="M0 450L0 540L110.7 456Z" fill="#297ea6" stroke="#297ea6"></path></g></svg>